<svg width="144" height="64" viewBox="0 0 144 64" fill="none" xmlns="http://www.w3.org/2000/svg">
<g filter="url(#filter0_d_395881_5850)">
<rect x="4" y="4" width="136" height="56" rx="10" fill="white"/>
<path d="M39.7614 39V24.4545H41.5227V37.4375H48.2841V39H39.7614ZM55.2159 39.2273C54.2311 39.2273 53.367 38.9929 52.6236 38.5241C51.8849 38.0554 51.3073 37.3996 50.8906 36.5568C50.4787 35.714 50.2727 34.7292 50.2727 33.6023C50.2727 32.4659 50.4787 31.474 50.8906 30.6264C51.3073 29.7789 51.8849 29.1207 52.6236 28.652C53.367 28.1832 54.2311 27.9489 55.2159 27.9489C56.2008 27.9489 57.0625 28.1832 57.8011 28.652C58.5445 29.1207 59.1222 29.7789 59.5341 30.6264C59.9508 31.474 60.1591 32.4659 60.1591 33.6023C60.1591 34.7292 59.9508 35.714 59.5341 36.5568C59.1222 37.3996 58.5445 38.0554 57.8011 38.5241C57.0625 38.9929 56.2008 39.2273 55.2159 39.2273ZM55.2159 37.7216C55.964 37.7216 56.5795 37.5298 57.0625 37.1463C57.5455 36.7628 57.9029 36.2585 58.1349 35.6335C58.367 35.0085 58.483 34.3314 58.483 33.6023C58.483 32.8731 58.367 32.1937 58.1349 31.5639C57.9029 30.9342 57.5455 30.4252 57.0625 30.0369C56.5795 29.6487 55.964 29.4545 55.2159 29.4545C54.4678 29.4545 53.8523 29.6487 53.3693 30.0369C52.8864 30.4252 52.5289 30.9342 52.2969 31.5639C52.0649 32.1937 51.9489 32.8731 51.9489 33.6023C51.9489 34.3314 52.0649 35.0085 52.2969 35.6335C52.5289 36.2585 52.8864 36.7628 53.3693 37.1463C53.8523 37.5298 54.4678 37.7216 55.2159 37.7216ZM64.8182 39L61.4943 28.0909H63.2557L65.6136 36.4432H65.7273L68.0568 28.0909H69.8466L72.1477 36.4148H72.2614L74.6193 28.0909H76.3807L73.0568 39H71.4091L69.0227 30.6193H68.8523L66.4659 39H64.8182Z" fill="black"/>
<path d="M96 33.5059C95.7654 33.5063 95.5369 33.4315 95.348 33.2924L86.4449 26.7226C86.3291 26.6371 86.2312 26.5296 86.157 26.4062C86.0827 26.2829 86.0335 26.1461 86.0121 26.0038C85.969 25.7163 86.0419 25.4235 86.2148 25.1897C86.3877 24.9559 86.6465 24.8004 86.9342 24.7572C87.2219 24.7141 87.5149 24.787 87.7489 24.9598L96 31.0422L104.251 24.9598C104.367 24.8742 104.499 24.8123 104.638 24.7775C104.778 24.7428 104.923 24.7359 105.066 24.7572C105.208 24.7786 105.345 24.8278 105.469 24.902C105.592 24.9762 105.7 25.0739 105.785 25.1897C105.871 25.3055 105.933 25.4369 105.968 25.5766C106.002 25.7163 106.009 25.8614 105.988 26.0038C105.966 26.1461 105.917 26.2829 105.843 26.4062C105.769 26.5296 105.671 26.6371 105.555 26.7226L96.652 33.2924C96.4631 33.4315 96.2346 33.5063 96 33.5059Z" fill="#7AE229"/>
<path d="M96 39.2544C95.7654 39.2548 95.5369 39.18 95.348 39.0409L86.4449 32.4712C86.211 32.2984 86.0553 32.0398 86.0121 31.7523C85.969 31.4648 86.0419 31.172 86.2148 30.9382C86.3877 30.7045 86.6465 30.5489 86.9342 30.5058C87.2219 30.4627 87.5149 30.5355 87.7489 30.7083L96 36.7908L104.251 30.7083C104.485 30.5355 104.778 30.4627 105.066 30.5058C105.354 30.5489 105.612 30.7045 105.785 30.9382C105.958 31.172 106.031 31.4648 105.988 31.7523C105.945 32.0398 105.789 32.2984 105.555 32.4712L96.652 39.0409C96.4631 39.18 96.2346 39.2548 96 39.2544Z" fill="#7AE229"/>
</g>
<defs>
<filter id="filter0_d_395881_5850" x="0" y="0" width="144" height="64" filterUnits="userSpaceOnUse" color-interpolation-filters="sRGB">
<feFlood flood-opacity="0" result="BackgroundImageFix"/>
<feColorMatrix in="SourceAlpha" type="matrix" values="0 0 0 0 0 0 0 0 0 0 0 0 0 0 0 0 0 0 127 0" result="hardAlpha"/>
<feOffset/>
<feGaussianBlur stdDeviation="2"/>
<feColorMatrix type="matrix" values="0 0 0 0 0 0 0 0 0 0 0 0 0 0 0 0 0 0 0.1 0"/>
<feBlend mode="normal" in2="BackgroundImageFix" result="effect1_dropShadow_395881_5850"/>
<feBlend mode="normal" in="SourceGraphic" in2="effect1_dropShadow_395881_5850" result="shape"/>
</filter>
</defs>
</svg>
