<svg width="136" height="56" viewBox="0 0 136 56" fill="none" xmlns="http://www.w3.org/2000/svg">
<rect width="136" height="56" rx="10" fill="#FFA800"/>
<path d="M13.3274 20.7273H17.3097L21.5156 30.9886H21.6946L25.9006 20.7273H29.8828V36H26.7507V26.0593H26.6239L22.6715 35.9254H20.5387L16.5863 26.022H16.4595V36H13.3274V20.7273ZM37.7037 36.2237C36.5255 36.2237 35.5113 35.9851 34.6611 35.5078C33.816 35.0256 33.1647 34.3445 32.7073 33.4645C32.2499 32.5795 32.0212 31.533 32.0212 30.3249C32.0212 29.1467 32.2499 28.1126 32.7073 27.2227C33.1647 26.3327 33.8085 25.6392 34.6388 25.142C35.474 24.6449 36.4534 24.3963 37.577 24.3963C38.3327 24.3963 39.0361 24.5181 39.6874 24.7617C40.3437 25.0004 40.9154 25.3608 41.4026 25.843C41.8948 26.3253 42.2776 26.9318 42.551 27.6626C42.8245 28.3885 42.9612 29.2386 42.9612 30.2131V31.0856H33.289V29.1168H39.9708C39.9708 28.6594 39.8714 28.2543 39.6725 27.9013C39.4736 27.5483 39.1977 27.2724 38.8447 27.0735C38.4967 26.8697 38.0915 26.7678 37.6292 26.7678C37.1469 26.7678 36.7194 26.8796 36.3465 27.1033C35.9786 27.3221 35.6903 27.6179 35.4814 27.9908C35.2726 28.3587 35.1657 28.7688 35.1608 29.2212V31.093C35.1608 31.6598 35.2652 32.1495 35.474 32.5621C35.6878 32.9748 35.9885 33.293 36.3763 33.5167C36.7641 33.7404 37.224 33.8523 37.7559 33.8523C38.1089 33.8523 38.4321 33.8026 38.7254 33.7031C39.0187 33.6037 39.2698 33.4545 39.4786 33.2557C39.6874 33.0568 39.8465 32.8132 39.9559 32.5249L42.8941 32.7188C42.7449 33.4247 42.4392 34.0412 41.9768 34.5682C41.5194 35.0902 40.9278 35.4979 40.202 35.7912C39.4811 36.0795 38.6483 36.2237 37.7037 36.2237ZM49.2552 36.1864C48.3852 36.1864 47.5972 35.9627 46.8912 35.5153C46.1903 35.0629 45.6334 34.3991 45.2208 33.5241C44.8131 32.6442 44.6093 31.5653 44.6093 30.2876C44.6093 28.9751 44.8206 27.8839 45.2432 27.0138C45.6657 26.1388 46.2275 25.4851 46.9285 25.0526C47.6345 24.6151 48.4076 24.3963 49.2478 24.3963C49.8891 24.3963 50.4236 24.5057 50.8511 24.7244C51.2836 24.9382 51.6317 25.2067 51.8952 25.5298C52.1636 25.848 52.3675 26.1612 52.5067 26.4695H52.6036V20.7273H55.773V36H52.6409V34.1655H52.5067C52.3575 34.4837 52.1462 34.7994 51.8728 35.1126C51.6043 35.4208 51.2538 35.6768 50.8213 35.8807C50.3937 36.0845 49.8717 36.1864 49.2552 36.1864ZM50.262 33.6584C50.7741 33.6584 51.2066 33.5192 51.5596 33.2408C51.9175 32.9574 52.191 32.5621 52.3799 32.055C52.5738 31.5479 52.6707 30.9538 52.6707 30.2727C52.6707 29.5916 52.5763 29 52.3873 28.4979C52.1984 27.9957 51.925 27.608 51.567 27.3345C51.2091 27.0611 50.7741 26.9244 50.262 26.9244C49.74 26.9244 49.3 27.0661 48.942 27.3494C48.5841 27.6328 48.3131 28.0256 48.1292 28.5277C47.9452 29.0298 47.8532 29.6115 47.8532 30.2727C47.8532 30.9389 47.9452 31.5281 48.1292 32.0401C48.3181 32.5472 48.589 32.945 48.942 33.2333C49.3 33.5167 49.74 33.6584 50.262 33.6584ZM58.3849 36V24.5455H61.5618V36H58.3849ZM59.9808 23.0689C59.5085 23.0689 59.1033 22.9123 58.7653 22.5991C58.4322 22.2809 58.2656 21.9006 58.2656 21.4581C58.2656 21.0206 58.4322 20.6452 58.7653 20.332C59.1033 20.0138 59.5085 19.8548 59.9808 19.8548C60.4531 19.8548 60.8558 20.0138 61.1889 20.332C61.527 20.6452 61.696 21.0206 61.696 21.4581C61.696 21.9006 61.527 22.2809 61.1889 22.5991C60.8558 22.9123 60.4531 23.0689 59.9808 23.0689ZM71.4521 31.1229V24.5455H74.629V36H71.5789V33.9194H71.4596C71.2011 34.5906 70.771 35.13 70.1695 35.5376C69.5729 35.9453 68.8445 36.1491 67.9845 36.1491C67.2188 36.1491 66.5452 35.9751 65.9635 35.6271C65.3818 35.2791 64.9269 34.7844 64.5988 34.1431C64.2757 33.5018 64.1116 32.7337 64.1066 31.8388V24.5455H67.2835V31.272C67.2884 31.9482 67.4699 32.4826 67.8279 32.8754C68.1858 33.2681 68.6656 33.4645 69.2671 33.4645C69.6499 33.4645 70.0079 33.3775 70.341 33.2035C70.6741 33.0245 70.9426 32.761 71.1464 32.413C71.3552 32.065 71.4571 31.6349 71.4521 31.1229ZM77.1701 36V24.5455H80.1978V26.5664H80.332C80.5707 25.8952 80.9684 25.3658 81.5252 24.978C82.082 24.5902 82.7482 24.3963 83.5238 24.3963C84.3093 24.3963 84.978 24.5927 85.5298 24.9854C86.0817 25.3732 86.4496 25.9002 86.6335 26.5664H86.7528C86.9865 25.9102 87.4091 25.3857 88.0206 24.9929C88.6371 24.5952 89.3654 24.3963 90.2056 24.3963C91.2745 24.3963 92.142 24.7369 92.8082 25.418C93.4794 26.0941 93.815 27.0536 93.815 28.2965V36H90.6456V28.9229C90.6456 28.2866 90.4766 27.8093 90.1385 27.4911C89.8004 27.1729 89.3778 27.0138 88.8707 27.0138C88.294 27.0138 87.8441 27.1978 87.521 27.5657C87.1978 27.9286 87.0362 28.4084 87.0362 29.005V36H83.9563V28.8558C83.9563 28.294 83.7947 27.8466 83.4716 27.5135C83.1534 27.1804 82.7333 27.0138 82.2113 27.0138C81.8583 27.0138 81.5401 27.1033 81.2567 27.2823C80.9783 27.4563 80.7571 27.7024 80.593 28.0206C80.429 28.3338 80.3469 28.7017 80.3469 29.1243V36H77.1701Z" fill="white"/>
<g clip-path="url(#clip0_395881_5843)">
<path d="M122.904 31.7253H105.096C104.805 31.7253 104.526 31.609 104.321 31.402C104.115 31.195 104 30.9142 104 30.6214C104 30.3287 104.115 30.0479 104.321 29.8409C104.526 29.6339 104.805 29.5176 105.096 29.5176H122.904C123.195 29.5176 123.474 29.6339 123.679 29.8409C123.885 30.0479 124 30.3287 124 30.6214C124 30.9142 123.885 31.195 123.679 31.402C123.474 31.609 123.195 31.7253 122.904 31.7253Z" fill="white"/>
<path d="M122.904 26.4821H105.096C104.805 26.4821 104.526 26.3658 104.321 26.1588C104.115 25.9518 104 25.671 104 25.3783C104 25.0855 104.115 24.8047 104.321 24.5977C104.526 24.3907 104.805 24.2744 105.096 24.2744H122.904C123.195 24.2744 123.474 24.3907 123.679 24.5977C123.885 24.8047 124 25.0855 124 25.3783C124 25.671 123.885 25.9518 123.679 26.1588C123.474 26.3658 123.195 26.4821 122.904 26.4821Z" fill="white"/>
</g>
<defs>
<clipPath id="clip0_395881_5843">
<rect width="20" height="7.45098" fill="white" transform="translate(104 24.2744)"/>
</clipPath>
</defs>
</svg>
