<svg width="183" height="56" viewBox="0 0 183 56" fill="none" xmlns="http://www.w3.org/2000/svg">
<rect width="183" height="56" rx="10" fill="#2A3647"/>
<path d="M30.8029 26.0742H27.5366C27.4769 25.6516 27.3551 25.2763 27.1712 24.9482C26.9872 24.6151 26.7511 24.3317 26.4627 24.098C26.1744 23.8643 25.8413 23.6854 25.4634 23.5611C25.0906 23.4368 24.6854 23.3746 24.2479 23.3746C23.4574 23.3746 22.7688 23.571 22.1822 23.9638C21.5955 24.3516 21.1406 24.9183 20.8175 25.6641C20.4943 26.4048 20.3327 27.3047 20.3327 28.3636C20.3327 29.4524 20.4943 30.3672 20.8175 31.108C21.1456 31.8487 21.603 32.408 22.1896 32.7859C22.7763 33.1637 23.4549 33.3526 24.2255 33.3526C24.658 33.3526 25.0582 33.2955 25.4261 33.1811C25.799 33.0668 26.1296 32.9002 26.418 32.6815C26.7063 32.4577 26.945 32.1868 27.1339 31.8686C27.3278 31.5504 27.462 31.1875 27.5366 30.7798L30.8029 30.7947C30.7184 31.4957 30.5071 32.1719 30.169 32.8232C29.8359 33.4695 29.386 34.0487 28.8192 34.5607C28.2575 35.0678 27.5863 35.4705 26.8058 35.7688C26.0302 36.0621 25.1527 36.2088 24.1733 36.2088C22.8111 36.2088 21.593 35.9006 20.5192 35.2841C19.4503 34.6676 18.6051 33.7752 17.9837 32.6069C17.3672 31.4386 17.0589 30.0241 17.0589 28.3636C17.0589 26.6982 17.3722 25.2812 17.9986 24.1129C18.625 22.9446 19.4751 22.0547 20.549 21.4432C21.6229 20.8267 22.831 20.5185 24.1733 20.5185C25.0582 20.5185 25.8786 20.6428 26.6342 20.8913C27.3949 21.1399 28.0685 21.5028 28.6552 21.9801C29.2418 22.4524 29.7191 23.0316 30.087 23.7177C30.4599 24.4038 30.6985 25.1893 30.8029 26.0742ZM33.0588 36V24.5455H36.1387V26.544H36.258C36.4668 25.8331 36.8173 25.2962 37.3095 24.9332C37.8017 24.5653 38.3684 24.3814 39.0098 24.3814C39.1689 24.3814 39.3404 24.3913 39.5243 24.4112C39.7083 24.4311 39.8699 24.4585 40.0091 24.4933V27.3121C39.8599 27.2674 39.6536 27.2276 39.3901 27.1928C39.1266 27.158 38.8855 27.1406 38.6667 27.1406C38.1994 27.1406 37.7818 27.2425 37.4139 27.4464C37.051 27.6452 36.7626 27.9237 36.5488 28.2816C36.34 28.6396 36.2356 29.0522 36.2356 29.5195V36H33.0588ZM46.3385 36.2237C45.1602 36.2237 44.146 35.9851 43.2959 35.5078C42.4507 35.0256 41.7994 34.3445 41.3421 33.4645C40.8847 32.5795 40.656 31.533 40.656 30.3249C40.656 29.1467 40.8847 28.1126 41.3421 27.2227C41.7994 26.3327 42.4433 25.6392 43.2735 25.142C44.1088 24.6449 45.0882 24.3963 46.2117 24.3963C46.9674 24.3963 47.6709 24.5181 48.3222 24.7617C48.9784 25.0004 49.5502 25.3608 50.0374 25.843C50.5296 26.3253 50.9124 26.9318 51.1858 27.6626C51.4593 28.3885 51.596 29.2386 51.596 30.2131V31.0856H41.9237V29.1168H48.6056C48.6056 28.6594 48.5061 28.2543 48.3073 27.9013C48.1084 27.5483 47.8325 27.2724 47.4795 27.0735C47.1315 26.8697 46.7263 26.7678 46.2639 26.7678C45.7817 26.7678 45.3541 26.8796 44.9813 27.1033C44.6134 27.3221 44.325 27.6179 44.1162 27.9908C43.9074 28.3587 43.8005 28.7688 43.7955 29.2212V31.093C43.7955 31.6598 43.8999 32.1495 44.1088 32.5621C44.3225 32.9748 44.6233 33.293 45.0111 33.5167C45.3989 33.7404 45.8588 33.8523 46.3907 33.8523C46.7437 33.8523 47.0669 33.8026 47.3602 33.7031C47.6535 33.6037 47.9046 33.4545 48.1134 33.2557C48.3222 33.0568 48.4813 32.8132 48.5906 32.5249L51.5289 32.7188C51.3797 33.4247 51.074 34.0412 50.6116 34.5682C50.1542 35.0902 49.5626 35.4979 48.8367 35.7912C48.1159 36.0795 47.2831 36.2237 46.3385 36.2237ZM56.9355 36.2163C56.2046 36.2163 55.5534 36.0895 54.9816 35.8359C54.4099 35.5774 53.9575 35.1971 53.6244 34.695C53.2963 34.1879 53.1322 33.5565 53.1322 32.8008C53.1322 32.1644 53.249 31.63 53.4827 31.1974C53.7164 30.7649 54.0345 30.4169 54.4372 30.1534C54.8399 29.8899 55.2973 29.6911 55.8094 29.5568C56.3264 29.4226 56.8683 29.3281 57.4351 29.2734C58.1013 29.2038 58.6382 29.1392 59.0459 29.0795C59.4536 29.0149 59.7494 28.9205 59.9333 28.7962C60.1173 28.6719 60.2093 28.4879 60.2093 28.2443V28.1996C60.2093 27.7273 60.0601 27.3619 59.7618 27.1033C59.4685 26.8448 59.0509 26.7156 58.509 26.7156C57.9372 26.7156 57.4823 26.8423 57.1443 27.0959C56.8062 27.3445 56.5825 27.6577 56.4731 28.0355L53.5349 27.7969C53.684 27.1009 53.9774 26.4993 54.4149 25.9922C54.8524 25.4801 55.4166 25.0874 56.1077 24.8139C56.8037 24.5355 57.6091 24.3963 58.5239 24.3963C59.1602 24.3963 59.7693 24.4709 60.3509 24.62C60.9376 24.7692 61.4571 25.0004 61.9095 25.3136C62.3669 25.6268 62.7274 26.0295 62.9909 26.5217C63.2544 27.0089 63.3861 27.593 63.3861 28.2741V36H60.3733V34.4116H60.2838C60.0999 34.7695 59.8538 35.0852 59.5455 35.3587C59.2373 35.6271 58.8669 35.8384 58.4344 35.9925C58.0019 36.1417 57.5022 36.2163 56.9355 36.2163ZM57.8453 34.0238C58.3126 34.0238 58.7252 33.9318 59.0832 33.7479C59.4411 33.5589 59.722 33.3054 59.9259 32.9872C60.1297 32.669 60.2316 32.3086 60.2316 31.9059V30.6903C60.1322 30.755 59.9955 30.8146 59.8215 30.8693C59.6524 30.919 59.461 30.9663 59.2472 31.011C59.0335 31.0508 58.8197 31.0881 58.6059 31.1229C58.3921 31.1527 58.1982 31.18 58.0242 31.2049C57.6514 31.2596 57.3257 31.3466 57.0473 31.4659C56.7689 31.5852 56.5526 31.7468 56.3985 31.9506C56.2444 32.1495 56.1673 32.3981 56.1673 32.6964C56.1673 33.1289 56.324 33.4595 56.6372 33.6882C56.9553 33.9119 57.358 34.0238 57.8453 34.0238ZM71.9434 24.5455V26.9318H65.0454V24.5455H71.9434ZM66.6114 21.8011H69.7883V32.4801C69.7883 32.7734 69.833 33.0021 69.9225 33.1662C70.012 33.3253 70.1363 33.4371 70.2954 33.5018C70.4594 33.5664 70.6483 33.5987 70.8621 33.5987C71.0113 33.5987 71.1604 33.5863 71.3096 33.5614C71.4587 33.5316 71.5731 33.5092 71.6526 33.4943L72.1523 35.8583C71.9932 35.908 71.7694 35.9652 71.4811 36.0298C71.1927 36.0994 70.8422 36.1417 70.4296 36.1566C69.664 36.1864 68.9928 36.0845 68.4161 35.8509C67.8444 35.6172 67.3994 35.2543 67.0812 34.7621C66.7631 34.2699 66.6064 33.6484 66.6114 32.8977V21.8011ZM79.11 36.2237C77.9317 36.2237 76.9175 35.9851 76.0674 35.5078C75.2222 35.0256 74.5709 34.3445 74.1135 33.4645C73.6562 32.5795 73.4275 31.533 73.4275 30.3249C73.4275 29.1467 73.6562 28.1126 74.1135 27.2227C74.5709 26.3327 75.2148 25.6392 76.045 25.142C76.8802 24.6449 77.8596 24.3963 78.9832 24.3963C79.7389 24.3963 80.4424 24.5181 81.0937 24.7617C81.7499 25.0004 82.3216 25.3608 82.8089 25.843C83.301 26.3253 83.6839 26.9318 83.9573 27.6626C84.2307 28.3885 84.3675 29.2386 84.3675 30.2131V31.0856H74.6952V29.1168H81.377C81.377 28.6594 81.2776 28.2543 81.0787 27.9013C80.8799 27.5483 80.604 27.2724 80.251 27.0735C79.903 26.8697 79.4978 26.7678 79.0354 26.7678C78.5532 26.7678 78.1256 26.8796 77.7528 27.1033C77.3849 27.3221 77.0965 27.6179 76.8877 27.9908C76.6789 28.3587 76.572 28.7688 76.567 29.2212V31.093C76.567 31.6598 76.6714 32.1495 76.8802 32.5621C77.094 32.9748 77.3948 33.293 77.7826 33.5167C78.1704 33.7404 78.6302 33.8523 79.1622 33.8523C79.5152 33.8523 79.8383 33.8026 80.1317 33.7031C80.425 33.6037 80.676 33.4545 80.8849 33.2557C81.0937 33.0568 81.2528 32.8132 81.3621 32.5249L84.3003 32.7188C84.1512 33.4247 83.8454 34.0412 83.3831 34.5682C82.9257 35.0902 82.3341 35.4979 81.6082 35.7912C80.8873 36.0795 80.0546 36.2237 79.11 36.2237ZM90.7789 23.3896V20.7273H103.322V23.3896H98.6465V36H95.4547V23.3896H90.7789ZM107.036 36.2163C106.305 36.2163 105.654 36.0895 105.082 35.8359C104.51 35.5774 104.058 35.1971 103.725 34.695C103.397 34.1879 103.233 33.5565 103.233 32.8008C103.233 32.1644 103.35 31.63 103.583 31.1974C103.817 30.7649 104.135 30.4169 104.538 30.1534C104.941 29.8899 105.398 29.6911 105.91 29.5568C106.427 29.4226 106.969 29.3281 107.536 29.2734C108.202 29.2038 108.739 29.1392 109.146 29.0795C109.554 29.0149 109.85 28.9205 110.034 28.7962C110.218 28.6719 110.31 28.4879 110.31 28.2443V28.1996C110.31 27.7273 110.161 27.3619 109.862 27.1033C109.569 26.8448 109.151 26.7156 108.61 26.7156C108.038 26.7156 107.583 26.8423 107.245 27.0959C106.907 27.3445 106.683 27.6577 106.574 28.0355L103.635 27.7969C103.785 27.1009 104.078 26.4993 104.515 25.9922C104.953 25.4801 105.517 25.0874 106.208 24.8139C106.904 24.5355 107.71 24.3963 108.624 24.3963C109.261 24.3963 109.87 24.4709 110.452 24.62C111.038 24.7692 111.558 25.0004 112.01 25.3136C112.468 25.6268 112.828 26.0295 113.091 26.5217C113.355 27.0089 113.487 27.593 113.487 28.2741V36H110.474V34.4116H110.384C110.2 34.7695 109.954 35.0852 109.646 35.3587C109.338 35.6271 108.968 35.8384 108.535 35.9925C108.102 36.1417 107.603 36.2163 107.036 36.2163ZM107.946 34.0238C108.413 34.0238 108.826 33.9318 109.184 33.7479C109.542 33.5589 109.823 33.3054 110.026 32.9872C110.23 32.669 110.332 32.3086 110.332 31.9059V30.6903C110.233 30.755 110.096 30.8146 109.922 30.8693C109.753 30.919 109.562 30.9663 109.348 31.011C109.134 31.0508 108.92 31.0881 108.706 31.1229C108.493 31.1527 108.299 31.18 108.125 31.2049C107.752 31.2596 107.426 31.3466 107.148 31.4659C106.869 31.5852 106.653 31.7468 106.499 31.9506C106.345 32.1495 106.268 32.3981 106.268 32.6964C106.268 33.1289 106.425 33.4595 106.738 33.6882C107.056 33.9119 107.459 34.0238 107.946 34.0238ZM125.482 27.8118L122.574 27.9908C122.524 27.7422 122.417 27.5185 122.253 27.3196C122.089 27.1158 121.873 26.9542 121.604 26.8349C121.341 26.7106 121.025 26.6484 120.657 26.6484C120.165 26.6484 119.75 26.7528 119.412 26.9616C119.074 27.1655 118.904 27.4389 118.904 27.782C118.904 28.0554 119.014 28.2866 119.233 28.4755C119.451 28.6644 119.827 28.8161 120.359 28.9304L122.432 29.348C123.545 29.5767 124.376 29.9446 124.923 30.4517C125.469 30.9588 125.743 31.625 125.743 32.4503C125.743 33.201 125.522 33.8597 125.079 34.4265C124.642 34.9933 124.04 35.4357 123.275 35.7539C122.514 36.0671 121.636 36.2237 120.642 36.2237C119.126 36.2237 117.918 35.908 117.018 35.2766C116.123 34.6403 115.598 33.7752 115.444 32.6815L118.569 32.5174C118.663 32.9798 118.892 33.3327 119.255 33.5763C119.618 33.815 120.083 33.9343 120.65 33.9343C121.206 33.9343 121.654 33.8274 121.992 33.6136C122.335 33.3949 122.509 33.114 122.514 32.771C122.509 32.4826 122.387 32.2464 122.148 32.0625C121.91 31.8736 121.542 31.7294 121.045 31.63L119.061 31.2347C117.942 31.011 117.11 30.6232 116.563 30.0714C116.021 29.5195 115.75 28.8161 115.75 27.9609C115.75 27.2251 115.949 26.5913 116.347 26.0593C116.749 25.5273 117.314 25.1172 118.039 24.8288C118.77 24.5405 119.625 24.3963 120.605 24.3963C122.051 24.3963 123.19 24.7021 124.02 25.3136C124.855 25.9251 125.343 26.7578 125.482 27.8118ZM130.622 32.7038L130.629 28.8931H131.092L134.761 24.5455H138.407L133.478 30.3026H132.725L130.622 32.7038ZM127.743 36V20.7273H130.92V36H127.743ZM134.902 36L131.532 31.011L133.65 28.7663L138.624 36H134.902Z" fill="white"/>
<mask id="mask0_204_3910" style="mask-type:alpha" maskUnits="userSpaceOnUse" x="143" y="16" width="24" height="24">
<rect x="143" y="16" width="24" height="24" fill="#D9D9D9"/>
</mask>
<g mask="url(#mask0_204_3910)">
<path d="M152.551 31.15L161.026 22.675C161.226 22.475 161.463 22.375 161.738 22.375C162.013 22.375 162.251 22.475 162.451 22.675C162.651 22.875 162.751 23.1125 162.751 23.3875C162.751 23.6625 162.651 23.9 162.451 24.1L153.251 33.3C153.051 33.5 152.817 33.6 152.551 33.6C152.284 33.6 152.051 33.5 151.851 33.3L147.551 29C147.351 28.8 147.255 28.5625 147.263 28.2875C147.271 28.0125 147.376 27.775 147.576 27.575C147.776 27.375 148.013 27.275 148.288 27.275C148.563 27.275 148.801 27.375 149.001 27.575L152.551 31.15Z" fill="white"/>
</g>
</svg>
