<svg width="126" height="56" viewBox="0 0 126 56" fill="none" xmlns="http://www.w3.org/2000/svg">
<rect x="0.5" y="0.5" width="125" height="55" rx="9.5" stroke="#2A3647"/>
<path d="M29.4659 25H27.7045C27.6004 24.4934 27.4181 24.0483 27.1577 23.6648C26.902 23.2812 26.5895 22.9593 26.2202 22.6989C25.8556 22.4337 25.4508 22.2348 25.0057 22.1023C24.5606 21.9697 24.0966 21.9034 23.6136 21.9034C22.733 21.9034 21.9351 22.1259 21.2202 22.571C20.5099 23.0161 19.9441 23.6719 19.5227 24.5384C19.1061 25.4048 18.8977 26.4678 18.8977 27.7273C18.8977 28.9867 19.1061 30.0497 19.5227 30.9162C19.9441 31.7827 20.5099 32.4384 21.2202 32.8835C21.9351 33.3286 22.733 33.5511 23.6136 33.5511C24.0966 33.5511 24.5606 33.4848 25.0057 33.3523C25.4508 33.2197 25.8556 33.0232 26.2202 32.7628C26.5895 32.4976 26.902 32.1733 27.1577 31.7898C27.4181 31.4015 27.6004 30.9564 27.7045 30.4545H29.4659C29.3333 31.1979 29.0919 31.8632 28.7415 32.4503C28.3911 33.0374 27.9555 33.5369 27.4347 33.9489C26.9138 34.3561 26.3291 34.6662 25.6804 34.8793C25.0365 35.0923 24.3475 35.1989 23.6136 35.1989C22.3731 35.1989 21.2699 34.8958 20.304 34.2898C19.3381 33.6837 18.5781 32.822 18.0241 31.7045C17.4702 30.5871 17.1932 29.2614 17.1932 27.7273C17.1932 26.1932 17.4702 24.8674 18.0241 23.75C18.5781 22.6326 19.3381 21.7708 20.304 21.1648C21.2699 20.5587 22.3731 20.2557 23.6136 20.2557C24.3475 20.2557 25.0365 20.3622 25.6804 20.5753C26.3291 20.7884 26.9138 21.1009 27.4347 21.5128C27.9555 21.92 28.3911 22.4171 28.7415 23.0043C29.0919 23.5866 29.3333 24.2519 29.4659 25ZM35.2951 35.2557C34.6038 35.2557 33.9764 35.1255 33.413 34.8651C32.8496 34.5999 32.4021 34.2188 32.0707 33.7216C31.7392 33.2197 31.5735 32.6136 31.5735 31.9034C31.5735 31.2784 31.6966 30.7718 31.9428 30.3835C32.189 29.9905 32.5181 29.6828 32.93 29.4602C33.342 29.2377 33.7965 29.072 34.2937 28.9631C34.7956 28.8494 35.2998 28.7595 35.8065 28.6932C36.4693 28.608 37.0067 28.544 37.4187 28.5014C37.8353 28.4541 38.1384 28.3759 38.3278 28.267C38.5219 28.1581 38.619 27.9687 38.619 27.6989V27.642C38.619 26.9413 38.4272 26.3968 38.0437 26.0085C37.6649 25.6203 37.0896 25.4261 36.3178 25.4261C35.5176 25.4261 34.8903 25.6013 34.4357 25.9517C33.9812 26.3021 33.6616 26.6761 33.4769 27.0739L31.886 26.5057C32.1701 25.8428 32.5489 25.3267 33.0224 24.9574C33.5006 24.5833 34.0214 24.3229 34.5849 24.1761C35.1531 24.0246 35.7118 23.9489 36.261 23.9489C36.6114 23.9489 37.0138 23.9915 37.4684 24.0767C37.9277 24.1572 38.3704 24.3253 38.7965 24.581C39.2274 24.8366 39.5849 25.2225 39.869 25.7386C40.1531 26.2547 40.2951 26.946 40.2951 27.8125V35H38.619V33.5227H38.5337C38.4201 33.7595 38.2307 34.0128 37.9656 34.2827C37.7004 34.5526 37.3477 34.7822 36.9073 34.9716C36.467 35.161 35.9296 35.2557 35.2951 35.2557ZM35.5508 33.75C36.2137 33.75 36.7724 33.6198 37.2269 33.3594C37.6862 33.099 38.0318 32.7628 38.2638 32.3509C38.5006 31.9389 38.619 31.5057 38.619 31.0511V29.517C38.5479 29.6023 38.3917 29.6804 38.1502 29.7514C37.9135 29.8177 37.6388 29.8769 37.3263 29.929C37.0186 29.9763 36.7179 30.0189 36.4244 30.0568C36.1355 30.09 35.9012 30.1184 35.7212 30.142C35.2856 30.1989 34.8784 30.2912 34.4996 30.419C34.1256 30.5421 33.8226 30.7292 33.5906 30.9801C33.3633 31.2263 33.2496 31.5625 33.2496 31.9886C33.2496 32.571 33.4651 33.0114 33.896 33.3097C34.3316 33.6032 34.8832 33.75 35.5508 33.75ZM45.0305 28.4375V35H43.3544V24.0909H44.9737V25.7955H45.1158C45.3714 25.2415 45.7597 24.7964 46.2805 24.4602C46.8014 24.1193 47.4737 23.9489 48.2976 23.9489C49.0362 23.9489 49.6825 24.1004 50.2365 24.4034C50.7905 24.7017 51.2214 25.1562 51.5291 25.767C51.8369 26.3731 51.9908 27.1402 51.9908 28.0682V35H50.3146V28.1818C50.3146 27.3248 50.0921 26.6572 49.647 26.179C49.2019 25.696 48.5911 25.4545 47.8146 25.4545C47.2796 25.4545 46.8014 25.5705 46.38 25.8026C45.9633 26.0346 45.6342 26.3731 45.3928 26.8182C45.1513 27.2633 45.0305 27.803 45.0305 28.4375ZM59.4854 35.2273C58.4627 35.2273 57.582 34.9858 56.8434 34.5028C56.1048 34.0199 55.5366 33.3546 55.1388 32.5071C54.7411 31.6596 54.5423 30.6913 54.5423 29.6023C54.5423 28.4943 54.7459 27.5166 55.1531 26.669C55.565 25.8168 56.1379 25.1515 56.8718 24.6733C57.6104 24.1903 58.4722 23.9489 59.457 23.9489C60.2241 23.9489 60.9154 24.0909 61.5309 24.375C62.1464 24.6591 62.6507 25.0568 63.0437 25.5682C63.4367 26.0795 63.6805 26.6761 63.7752 27.358H62.0991C61.9712 26.8608 61.6871 26.4205 61.2468 26.0369C60.8112 25.6487 60.2241 25.4545 59.4854 25.4545C58.832 25.4545 58.2591 25.625 57.7667 25.9659C57.279 26.3021 56.8978 26.7779 56.6232 27.3935C56.3533 28.0043 56.2184 28.7216 56.2184 29.5455C56.2184 30.3883 56.351 31.1222 56.6161 31.7472C56.886 32.3722 57.2648 32.8575 57.7525 33.2031C58.2449 33.5488 58.8226 33.7216 59.4854 33.7216C59.921 33.7216 60.3164 33.6458 60.6715 33.4943C61.0266 33.3428 61.3273 33.125 61.5735 32.8409C61.8197 32.5568 61.9949 32.2159 62.0991 31.8182H63.7752C63.6805 32.4621 63.4461 33.0421 63.0721 33.5582C62.7028 34.0696 62.2127 34.4768 61.6019 34.7798C60.9959 35.0781 60.2904 35.2273 59.4854 35.2273ZM70.7994 35.2273C69.7482 35.2273 68.8415 34.9953 68.0792 34.5312C67.3216 34.0625 66.7369 33.4091 66.3249 32.571C65.9177 31.7282 65.7141 30.7481 65.7141 29.6307C65.7141 28.5133 65.9177 27.5284 66.3249 26.6761C66.7369 25.8191 67.3098 25.1515 68.0437 24.6733C68.7823 24.1903 69.6441 23.9489 70.6289 23.9489C71.1971 23.9489 71.7582 24.0436 72.3121 24.233C72.8661 24.4223 73.3704 24.7301 73.8249 25.1562C74.2795 25.5777 74.6417 26.1364 74.9116 26.8324C75.1815 27.5284 75.3164 28.3854 75.3164 29.4034V30.1136H66.9073V28.6648H73.6119C73.6119 28.0492 73.4888 27.5 73.2425 27.017C73.0011 26.5341 72.6554 26.1529 72.2056 25.8736C71.7605 25.5942 71.235 25.4545 70.6289 25.4545C69.9613 25.4545 69.3836 25.6203 68.896 25.9517C68.413 26.2784 68.0413 26.7045 67.7809 27.2301C67.5205 27.7557 67.3903 28.3191 67.3903 28.9205V29.8864C67.3903 30.7102 67.5323 31.4086 67.8164 31.9815C68.1052 32.5497 68.5053 32.983 69.0167 33.2812C69.5281 33.5748 70.1223 33.7216 70.7994 33.7216C71.2397 33.7216 71.6374 33.66 71.9925 33.5369C72.3524 33.4091 72.6625 33.2197 72.9229 32.9688C73.1834 32.7131 73.3846 32.3958 73.5266 32.017L75.146 32.4716C74.9755 33.0208 74.689 33.5038 74.2866 33.9205C73.8841 34.3324 73.387 34.6544 72.7951 34.8864C72.2032 35.1136 71.538 35.2273 70.7994 35.2273ZM79.5423 20.4545V35H77.8661V20.4545H79.5423Z" fill="#2A3647"/>
<path d="M98.001 28.0001L103.244 33.2431M92.758 33.2431L98.001 28.0001L92.758 33.2431ZM103.244 22.7571L98 28.0001L103.244 22.7571ZM98 28.0001L92.758 22.7571L98 28.0001Z" stroke="#2A3647" stroke-width="2" stroke-linecap="round" stroke-linejoin="round"/>
</svg>
